<svg version="1.1" xmlns="http://www.w3.org/2000/svg" xmlns:xlink="http://www.w3.org/1999/xlink" width="45" height="45" viewBox="0,0,45,45"><g transform="translate(-218,-158)"><g data-paper-data="{&quot;isPaintingLayer&quot;:true}" fill-rule="nonzero" stroke-linejoin="miter" stroke-miterlimit="10" stroke-dasharray="" stroke-dashoffset="0" style="mix-blend-mode: normal"><path d="M240.5,158c6.208,0 11.833,2.521 15.906,6.594c4.073,4.073 6.594,9.698 6.594,15.906c0,6.208 -2.521,11.833 -6.594,15.906c-4.073,4.073 -9.698,6.594 -15.906,6.594c-6.208,0 -11.833,-2.521 -15.906,-6.594c-4.073,-4.073 -6.594,-9.698 -6.594,-15.906c0,-6.208 2.521,-11.833 6.594,-15.906c4.073,-4.073 9.698,-6.594 15.906,-6.594z" fill="#ffffff" stroke="none" stroke-width="1" stroke-linecap="butt"/><path d="M230.81152,169.16793h11.28549l-11.28549,12.35016v-12.13722l21.93217,21.93218" fill="#ffffff" stroke="#000000" stroke-width="3" stroke-linecap="round"/><path d="M237.12287,174.12742c-0.22079,0.32723 -0.35003,0.53788 -0.53307,0.8828l-0.09445,0.10936c0,0 -0.07839,0.07839 -0.18298,0.07857c-0.09359,0.09091 -0.18838,0.18059 -0.28423,0.26909l-0.25475,0.0663c0,0 -0.25,0 -0.25,-0.25c0,-0.06866 0.01885,-0.11846 0.04621,-0.15458c-0.1137,0.07706 -0.24211,0.15197 -0.38761,0.22472l-0.42587,0.21293c0,0 -0.00192,0.00096 -0.0055,0.00253c-0.04587,0.02359 -0.11007,0.04197 -0.18019,0.01793c-0.0455,-0.01198 -0.09192,-0.04017 -0.12967,-0.09735c-0.03789,-0.04825 -0.05152,-0.09575 -0.05179,-0.13886l-0.112,0.01825c-0.01454,0.00263 -0.02951,0.004 -0.0448,0.004c-0.13807,0 -0.25,-0.11193 -0.25,-0.25c0,-0.03014 0.00533,-0.05904 0.01511,-0.0858c-1.17379,-0.2055 -2.0659,-1.22979 -2.0659,-2.46245c0,-0.38078 0.08513,-0.74167 0.23739,-1.06469c-0.00285,-0.00149 -0.00569,-0.00298 -0.00854,-0.00447c-0.58884,-0.18128 -1.10472,-0.46125 -1.10019,-0.78824c0.00076,-0.05454 0.01054,-0.10526 0.02795,-0.15207c-0.17881,-0.33406 -0.23494,-0.69834 -0.0339,-0.9287c0.12279,-0.1407 0.34484,-0.14773 0.61851,-0.07043l0.24832,0.01093l-0.00096,0.02172l0.0619,-0.01139c0.13335,0.08003 0.28551,0.18555 0.43803,0.30966c0.26192,0.14619 0.53207,0.32078 0.78581,0.49823c0.36216,-0.20411 0.78032,-0.32056 1.22566,-0.32056c0.03567,0 0.07116,0.00075 0.10647,0.00223c0.0353,-0.00148 0.0708,-0.00223 0.10647,-0.00223c1.38071,0 2.5,1.11929 2.5,2.5c0,0.30906 -0.05608,0.60502 -0.15862,0.87826l0.0917,0.02484c0.17635,0.26447 0.17054,0.45406 0.06733,0.60685c-0.01105,0.02638 -0.02186,0.04259 -0.02186,0.04259zM235.75962,175.03427c0.04102,-0.03834 0.08184,-0.07691 0.12242,-0.11572c-0.05401,0.04706 -0.11372,0.08901 -0.17972,0.12589c0.02388,-0.00648 0.04451,-0.0091 0.0573,-0.01017zM231.43009,170.11002c0.00567,-0.0013 0.01144,-0.00248 0.0173,-0.00354c0.00017,-0.00029 0.00035,-0.00059 0.00052,-0.00088l-0.02425,-0.01617c0.00191,0.00672 0.00406,0.01359 0.00643,0.02059z" fill="#ffffff" stroke="none" stroke-width="0.5" stroke-linecap="butt"/><path d="M230.79205,180.92471v-11.95473h11.95473v-0.23909z" fill="#000000" stroke="none" stroke-width="0" stroke-linecap="butt"/><path d="M234.24078,166.46371c0,1.25 -1.25,1.25 -1.25,1.25c-0.90035,0 -2.36934,0 -3.26968,0c0,0 -1.25,0 -1.25,-1.25c0,-0.19978 0.03193,-0.36763 0.08558,-0.50866c-0.20659,-0.22297 -0.33288,-0.52141 -0.33288,-0.84936c0,-0.69036 0.55964,-1.25 1.25,-1.25c0.69036,0 1.25,0.55964 1.25,1.25c0,0.03639 -0.00155,0.07241 -0.0046,0.10801c0.56765,0 1.13529,0 1.70294,0h0.56864c0,0 1.25,0 1.25,1.25z" fill="#ffffff" stroke="none" stroke-width="0.5" stroke-linecap="butt"/></g></g></svg>